# xmcd
#
# Track frame offsets:
#	150
#	14661
#	32054
#	51670
#	65550
#	82900
#	98587
#	117787
#	137266
#	154252
#	169162
#	182086
#	198528
#	213909
#	230156
#	245785
#	261323
#	278968
#
# Disc length: 3939 seconds
#
# Revision: 1
# Processed by: cddbd v1.5PL3 Copyright (c) Steve Scherf et al.
# Submitted via: audiograbber 1.83.01
#
DISCID=0a0f6112
DTITLE=кеутеягс паматфгс - жикайиа
DYEAR=2002
DGENRE=еккгмийа
TTITLE0=жикайиа
TTITLE1=пеиаяслос йаи алаятиа
TTITLE2=паки паки
TTITLE3=ма пкгхаимоум ои цумаийес
TTITLE4=с' ацапаы яе цалыто
TTITLE5=йобы жкебес
TTITLE6=2 в 3
TTITLE7=де ле йатакабес
TTITLE8=паяйолетяо
TTITLE9=дысе лоу ацапг лоу
TTITLE10=еимаи аменгцгто
TTITLE11=фгкеуы
TTITLE12=есу (памы ап' ока есу)
TTITLE13=хекы
TTITLE14=де неяеис м' ацапас
TTITLE15=ашпмиес
TTITLE16=паки есу
TTITLE17=ека ма кекебасем
EXTD=
EXTT0=
EXTT1=
EXTT2=
EXTT3=
EXTT4=
EXTT5=
EXTT6=
EXTT7=
EXTT8=
EXTT9=
EXTT10=
EXTT11=
EXTT12=
EXTT13=
EXTT14=
EXTT15=
EXTT16=
EXTT17=
PLAYORDER=
